<?xml version="1.0" encoding="UTF-8" standalone="no"?>
<!DOCTYPE svg PUBLIC "-//W3C//DTD SVG 1.1//EN" "http://www.w3.org/Graphics/SVG/1.1/DTD/svg11.dtd">
<svg width="100%" height="100%" viewBox="0 0 2320 1080" version="1.1" xmlns="http://www.w3.org/2000/svg" xmlns:xlink="http://www.w3.org/1999/xlink" xml:space="preserve" xmlns:serif="http://www.serif.com/" style="fill-rule:evenodd;clip-rule:evenodd;stroke-linejoin:round;stroke-miterlimit:2;">
    <g>
        <g transform="matrix(1.68444,0,0,1.65942,-244.774,-343.564)">
            <rect x="192.808" y="255.248" width="546.175" height="554.409" style="fill:rgb(0,93,235);fill-opacity:0.24;"/>
            <path d="M738.983,255.248L192.808,255.248L192.808,809.657L738.983,809.657L738.983,255.248ZM733.464,260.85L733.464,804.054C733.464,804.054 198.327,804.054 198.327,804.054C198.327,804.054 198.327,318.641 198.327,260.85C198.327,260.85 733.464,260.85 733.464,260.85L733.464,260.85Z" style="fill:rgb(0,93,235);"/>
        </g>
        <g transform="matrix(1,0,0,1,-2.49172,35.8267)">
            <text x="26.76px" y="520.102px" style="font-family:'CambriaMath', 'Cambria Math', serif;font-size:67.053px;fill:rgb(0,93,235);">𝑟</text>
        </g>
        <g transform="matrix(1,0,0,1,497.508,35.8267)">
            <text x="26.76px" y="520.102px" style="font-family:'CambriaMath', 'Cambria Math', serif;font-size:67.053px;fill:rgb(0,93,235);">𝑟</text>
            <g transform="matrix(67.0528,0,0,67.0528,58.6492,520.102)">
                <path d="M0.247,-0.315C0.258,-0.315 0.267,-0.316 0.273,-0.317C0.279,-0.318 0.284,-0.32 0.288,-0.322C0.291,-0.325 0.294,-0.327 0.297,-0.331C0.299,-0.335 0.303,-0.342 0.308,-0.354L0.341,-0.354L0.334,-0.26L0.048,-0.26L0.048,-0.279C0.059,-0.303 0.074,-0.326 0.093,-0.349C0.112,-0.372 0.134,-0.396 0.16,-0.42C0.19,-0.449 0.211,-0.471 0.224,-0.486C0.237,-0.501 0.246,-0.515 0.252,-0.528C0.259,-0.541 0.262,-0.555 0.262,-0.568C0.262,-0.59 0.255,-0.607 0.243,-0.62C0.23,-0.633 0.212,-0.639 0.189,-0.639C0.169,-0.639 0.152,-0.634 0.137,-0.623C0.123,-0.612 0.112,-0.597 0.105,-0.576L0.059,-0.576L0.059,-0.642C0.088,-0.653 0.114,-0.662 0.139,-0.667C0.163,-0.672 0.185,-0.674 0.204,-0.674C0.229,-0.674 0.251,-0.672 0.267,-0.666C0.284,-0.66 0.298,-0.653 0.308,-0.644C0.318,-0.635 0.325,-0.625 0.329,-0.613C0.333,-0.601 0.335,-0.588 0.335,-0.576C0.335,-0.56 0.332,-0.545 0.325,-0.531C0.319,-0.517 0.308,-0.502 0.293,-0.486C0.278,-0.47 0.252,-0.445 0.214,-0.411C0.174,-0.374 0.145,-0.342 0.126,-0.315L0.247,-0.315Z" style="fill:rgb(0,93,235);fill-rule:nonzero;"/>
            </g>
        </g>
        <g transform="matrix(1,0,0,1,997.508,35.8267)">
            <text x="26.76px" y="520.102px" style="font-family:'CambriaMath', 'Cambria Math', serif;font-size:67.053px;fill:rgb(0,93,235);">𝑟</text>
        </g>
        <g transform="matrix(1,0,0,1,497.508,535.827)">
            <text x="26.76px" y="520.102px" style="font-family:'CambriaMath', 'Cambria Math', serif;font-size:67.053px;fill:rgb(0,93,235);">𝑟</text>
        </g>
        <g transform="matrix(1,0,0,1,482.529,-464.173)">
            <text x="26.76px" y="520.102px" style="font-family:'CambriaMath', 'Cambria Math', serif;font-size:67.053px;fill:rgb(0,93,235);">𝑟</text>
        </g>
    </g>
    <g transform="matrix(1,0,0,1,160,0)">
        <g transform="matrix(1,0,0,1,1080,0)">
            <path d="M1000,80L1000,1000L80,1000L81.487,999.999C588.586,999.175 1000,587.254 1000,80L80,80L1000,80Z" style="fill:rgb(0,93,235);fill-opacity:0.24;"/>
            <path d="M80,80L1000,80L1000,1000L80,1000L81.487,999.999C588.586,999.175 1000,587.254 1000,80L80,80ZM990.703,265.7L990.703,990.703L265.67,990.703C629.7,916.783 916.752,629.747 990.703,265.7Z" style="fill:rgb(0,93,235);"/>
        </g>
        <g transform="matrix(1,0,0,1,1080,0)">
            <path d="M1000,80C1000,587.254 588.586,999.175 81.487,999.999L80,1000L80,80L1000,80Z" style="fill:rgb(235,49,23);fill-opacity:0.24;"/>
            <path d="M1000,80C1000,587.254 588.586,999.175 81.487,999.999L80,1000L80,80L1000,80ZM89.297,990.652L89.297,89.297C89.297,89.297 990.656,89.297 990.656,89.297L990.656,89.297C985.692,584.562 584.551,985.699 89.297,990.652Z" style="fill:rgb(235,49,23);"/>
        </g>
        <g transform="matrix(1,0,0,1,1077.51,35.8267)">
            <text x="26.76px" y="520.102px" style="font-family:'CambriaMath', 'Cambria Math', serif;font-size:67.053px;fill:rgb(235,49,23);">𝑟</text>
        </g>
        <g transform="matrix(1,0,0,1,1462.48,-112.881)">
            <text x="6.575px" y="520.102px" style="font-family:'CambriaMath', 'Cambria Math', serif;font-size:67.053px;fill:rgb(235,49,23);">π𝑟</text>
            <g transform="matrix(67.0528,0,0,67.0528,78.8338,520.102)">
                <path d="M0.247,-0.315C0.258,-0.315 0.267,-0.316 0.273,-0.317C0.279,-0.318 0.284,-0.32 0.288,-0.322C0.291,-0.325 0.294,-0.327 0.297,-0.331C0.299,-0.335 0.303,-0.342 0.308,-0.354L0.341,-0.354L0.334,-0.26L0.048,-0.26L0.048,-0.279C0.059,-0.303 0.074,-0.326 0.093,-0.349C0.112,-0.372 0.134,-0.396 0.16,-0.42C0.19,-0.449 0.211,-0.471 0.224,-0.486C0.237,-0.501 0.246,-0.515 0.252,-0.528C0.259,-0.541 0.262,-0.555 0.262,-0.568C0.262,-0.59 0.255,-0.607 0.243,-0.62C0.23,-0.633 0.212,-0.639 0.189,-0.639C0.169,-0.639 0.152,-0.634 0.137,-0.623C0.123,-0.612 0.112,-0.597 0.105,-0.576L0.059,-0.576L0.059,-0.642C0.088,-0.653 0.114,-0.662 0.139,-0.667C0.163,-0.672 0.185,-0.674 0.204,-0.674C0.229,-0.674 0.251,-0.672 0.267,-0.666C0.284,-0.66 0.298,-0.653 0.308,-0.644C0.318,-0.635 0.325,-0.625 0.329,-0.613C0.333,-0.601 0.335,-0.588 0.335,-0.576C0.335,-0.56 0.332,-0.545 0.325,-0.531C0.319,-0.517 0.308,-0.502 0.293,-0.486C0.278,-0.47 0.252,-0.445 0.214,-0.411C0.174,-0.374 0.145,-0.342 0.126,-0.315L0.247,-0.315Z" style="fill:rgb(235,49,23);fill-rule:nonzero;"/>
            </g>
        </g>
        <g transform="matrix(1,0,0,1,1460.48,-44.9072)">
            <text x="37.793px" y="520.102px" style="font-family:'CambriaMath', 'Cambria Math', serif;font-size:67.053px;fill:rgb(235,49,23);">4</text>
        </g>
        <g transform="matrix(1.1823,0,0,1,1000.36,-33.0539)">
            <rect x="389.477" y="449.785" width="94.719" height="4.497" style="fill:rgb(235,49,23);"/>
        </g>
        <g transform="matrix(1,0,0,1,1562.53,-464.173)">
            <text x="26.76px" y="520.102px" style="font-family:'CambriaMath', 'Cambria Math', serif;font-size:67.053px;fill:rgb(235,49,23);">𝑟</text>
        </g>
    </g>
</svg>
